# xmcd CD database file
#
# Track frame offsets:
#	180
#	12164
#	25731
#	42570
#	56288
#	71019
#	86529
#	103162
#	118469
#	134318
#	167941
#	183301
#	194746
#	210162
#	225420
#	246618
#
# Disc length: 3467 seconds
#
# Revision: 0
# Processed by: cddbd v1.5.2PL0 Copyright (c) Steve Scherf et al.
# Submitted via: CDex 1.51
#
DISCID=e40d8910
DTITLE=Various Artist - The Power of Jazz
DYEAR=2005
DGENRE=Jazz
TTITLE0=The red Norvo Trio with Tal Farlow and Charles Mingus - Cheek to Cheek
TTITLE1=Joe Williams and Countt Basie - Always aon the blue Side
TTITLE2=Zoot Sims - Trotting
TTITLE3=Dinah Shore - Anniversary Song
TTITLE4=Sidney Bechet - Summertime
TTITLE5=Bobby Hacket - At the Jazz Band Ball
TTITLE6=Horace Silver - How about you?
TTITLE7=Lester Young - Two to Tango
TTITLE8=Kenny Dorham - Be my Love
TTITLE9=The Oscar Peterson Trio with Oscar Peterson, Ray Brown and Barney Kessel - C Jam Blues
TTITLE10=The Gene Krupa Trio, feat. Buddy Rich - The Drum Battle
TTITLE11=Chet Baker - Time after Time
TTITLE12=Herbie Mann - Moon Dreams
TTITLE13=Benny Goodmann and his Orchestra - Somebody stole my gal
TTITLE14=Lee Konitz - Ablution
TTITLE15=George Lewis - Bill Baley
EXTD=YEAR: 2005
EXTT0=
EXTT1=
EXTT2=
EXTT3=
EXTT4=
EXTT5=
EXTT6=
EXTT7=
EXTT8=
EXTT9=
EXTT10=
EXTT11=
EXTT12=
EXTT13=
EXTT14=
EXTT15=
PLAYORDER=
